<?xml version="1.0"?>
<svg xmlns="http://www.w3.org/2000/svg" xmlns:xlink="http://www.w3.org/1999/xlink" xmlns:svgjs="http://svgjs.com/svgjs" version="1.1" width="512" height="512" x="0" y="0" viewBox="0 0 64 64" style="enable-background:new 0 0 512 512" xml:space="preserve" class=""><g><g xmlns="http://www.w3.org/2000/svg"><path d="m57.357 41.018-3.357-2.518v-1.965l1.013-.675c5.001-3.334 7.987-8.913 7.987-14.924 0-7.7-4.795-14.398-12-16.915v-.021c0-1.654-1.346-3-3-3h-2c-1.302 0-2.402.839-2.816 2h-4.724c-1.1-1.224-2.689-2-4.46-2-3.309 0-6 2.691-6 6 0 2.575 1.634 4.77 3.917 5.619-.653.658-1.276 1.47-1.844 2.381h-11.099c-.914-1.207-2.348-2-3.974-2s-3.061.793-3.974 2h-7.026c-1.654 0-3 1.346-3 3v12c0 1.654 1.346 3 3 3h11.586l3.293 3.293c.456.456 1.062.707 1.707.707 1.331 0 2.414-1.083 2.414-2.414v-1.586h8.605c.063.069.121.141.188.207.041.041.085.076.127.115-.552.356-.92.974-.92 1.678 0 2.206 1.794 4 4 4h8v2.336c-4.81 2.104-8 6.919-8 12.208v9.456h28v-16c0-3.188-2.501-5.796-5.643-5.982zm-10.357-14.018c-3.309 0-6-2.691-6-6s2.691-6 6-6 6 2.691 6 6-2.691 6-6 6zm-13.793 4.793c-.778-.778-1.207-1.814-1.207-2.914v-4.6l-2.96-.987c.418-3.921 4.008-10.292 5.96-10.292h1 7v1.082c-2.387 1.386-4 3.964-4 6.918 0 3.35 2.072 6.221 5 7.411v4.589h-1-6.879c-1.1 0-2.136-.429-2.914-1.207zm12.793-28.793h2c.551 0 1 .449 1 1v9.263c-.641-.166-1.308-.263-2-.263s-1.359.097-2 .263v-9.263c0-.551.449-1 1-1zm-16 4c0-2.206 1.794-4 4-4s4 1.794 4 4h2c0-.702-.128-1.373-.35-2h3.35v6h-7-1-1c-2.206 0-4-1.794-4-4zm-15 8c1.654 0 3 1.346 3 3s-1.346 3-3 3-3-1.346-3-3 1.346-3 3-3zm-12 15v-12c0-.551.449-1 1-1h6.101c-.066.323-.101.658-.101 1 0 1.426.608 2.707 1.569 3.619-3.826 1.404-6.569 5.073-6.569 9.381h-1c-.551 0-1-.449-1-1zm18 1v3.586c0 .338-.469.532-.707.293l-3.879-3.879h-9.414c0-4.411 3.589-8 8-8s8 3.589 8 8zm4 0c0-4.308-2.743-7.977-6.569-9.381.961-.912 1.569-2.193 1.569-3.619 0-.342-.035-.677-.101-1h9.076c-1.203 2.489-1.975 5.208-1.975 7v.721l3 1v3.158c0 .736.136 1.45.383 2.121zm10 6c-1.103 0-2-.897-2-2h3.121 6.879 1c1.103 0 2-.897 2-2v-4.069c.328.041.661.069 1 .069s.672-.028 1-.069v5.069c0 1.654-1.346 3-3 3zm15-3v-5.589c2.928-1.19 5-4.061 5-7.411 0-2.953-1.613-5.532-4-6.918v-7.94c6.034 2.405 10 8.189 10 14.794 0 5.34-2.653 10.297-7.096 13.26l-1.904 1.269v3.121l-2.414 2.414h-4.586v-2c2.757 0 5-2.243 5-5zm1 13v14h-14v-7.456c0-4.636 2.88-8.851 7.186-10.544h6.229l2.68-2.68 1.55 1.163c-2.141.918-3.645 3.044-3.645 5.517zm10 14h-8v-14c0-2.206 1.794-4 4-4s4 1.794 4 4z" fill="#8b8b8d" data-original="#000000" style="" class=""/><path d="m47 17c-2.206 0-4 1.794-4 4s1.794 4 4 4 4-1.794 4-4-1.794-4-4-4zm0 6c-1.103 0-2-.897-2-2s.897-2 2-2 2 .897 2 2-.897 2-2 2z" fill="#8b8b8d" data-original="#000000" style="" class=""/><path d="m28 39h-24c-1.654 0-3 1.346-3 3v12c0 1.654 1.346 3 3 3h15.586l3.293 3.293c.456.456 1.062.707 1.707.707 1.331 0 2.414-1.083 2.414-2.414v-1.586h1c1.654 0 3-1.346 3-3v-12c0-1.654-1.346-3-3-3zm1 15c0 .551-.449 1-1 1h-3v3.586c0 .338-.469.531-.707.293l-3.879-3.879h-16.414c-.551 0-1-.449-1-1v-12c0-.551.449-1 1-1h24c.551 0 1 .449 1 1z" fill="#8b8b8d" data-original="#000000" style="" class=""/><path d="m5 43h2v2h-2z" fill="#8b8b8d" data-original="#000000" style="" class=""/><path d="m9 43h18v2h-18z" fill="#8b8b8d" data-original="#000000" style="" class=""/><path d="m5 47h22v2h-22z" fill="#8b8b8d" data-original="#000000" style="" class=""/><path d="m5 51h22v2h-22z" fill="#8b8b8d" data-original="#000000" style="" class=""/></g></g></svg>
