<?xml version="1.0"?>
<svg xmlns="http://www.w3.org/2000/svg" xmlns:xlink="http://www.w3.org/1999/xlink" xmlns:svgjs="http://svgjs.com/svgjs" version="1.1" width="512" height="512" x="0" y="0" viewBox="0 0 512 512" style="enable-background:new 0 0 512 512" xml:space="preserve" class=""><g><g xmlns="http://www.w3.org/2000/svg" id="Out_line" data-name="Out line"><path d="m376 472a8.00917 8.00917 0 0 1 -8 8h-224a8.00917 8.00917 0 0 1 -8-8v-160h-16v160a24.02718 24.02718 0 0 0 24 24h224a24.02718 24.02718 0 0 0 24-24v-272h-16z" fill="#8b8b8d" data-original="#000000" style="" class=""/><path d="m136 40a8.00917 8.00917 0 0 1 8-8h160v-16h-160a24.0275 24.0275 0 0 0 -24 24v56h16z" fill="#8b8b8d" data-original="#000000" style="" class=""/><path d="m368 408v-192h-16v184h-192v-72h-16v80a8.00008 8.00008 0 0 0 8 8h208a8.00008 8.00008 0 0 0 8-8z" fill="#8b8b8d" data-original="#000000" style="" class=""/><path d="m144 88v8h160v-16h-152a8.00008 8.00008 0 0 0 -8 8z" fill="#8b8b8d" data-original="#000000" style="" class=""/><path d="m240 48h48v16h-48z" fill="#8b8b8d" data-original="#000000" style="" class=""/><circle cx="224" cy="56" r="8" fill="#8b8b8d" data-original="#000000" style="" class=""/><path d="m232 448a24 24 0 1 0 24-24 24.02718 24.02718 0 0 0 -24 24zm32 0a8 8 0 1 1 -8-8 8.00917 8.00917 0 0 1 8 8z" fill="#8b8b8d" data-original="#000000" style="" class=""/><path d="m168 368h176v16h-176z" fill="#8b8b8d" data-original="#000000" style="" class=""/><path d="m176 296v48a8.00008 8.00008 0 0 0 8 8h32a8.00008 8.00008 0 0 0 8-8v-48a8.00008 8.00008 0 0 0 -8-8h-32a8.00008 8.00008 0 0 0 -8 8zm16 8h16v32h-16z" fill="#8b8b8d" data-original="#000000" style="" class=""/><path d="m240 248a8.00008 8.00008 0 0 0 -8 8v88a8.00008 8.00008 0 0 0 8 8h32a8.00008 8.00008 0 0 0 8-8v-88a8.00008 8.00008 0 0 0 -8-8zm24 88h-16v-72h16z" fill="#8b8b8d" data-original="#000000" style="" class=""/><path d="m328 192h-32a8.00008 8.00008 0 0 0 -8 8v144a8.00008 8.00008 0 0 0 8 8h32a8.00008 8.00008 0 0 0 8-8v-144a8.00008 8.00008 0 0 0 -8-8zm-8 144h-16v-128h16z" fill="#8b8b8d" data-original="#000000" style="" class=""/><path d="m152.002 312a8.00119 8.00119 0 0 0 7.998-8v-32h24a8.00008 8.00008 0 0 0 8-8v-144a8.00008 8.00008 0 0 0 -8-8h-160a8.00008 8.00008 0 0 0 -8 8v144a8.00008 8.00008 0 0 0 8 8h84.686l37.65722 37.65723a7.99771 7.99771 0 0 0 5.65878 2.34277zm-8.002-48v20.68652l-26.34326-26.34375a8.00035 8.00035 0 0 0 -5.65674-2.34277h-80v-128h144v128h-24a8.00008 8.00008 0 0 0 -8 8z" fill="#8b8b8d" data-original="#000000" style="" class=""/><path d="m104 136a56 56 0 1 0 56 56 56.06322 56.06322 0 0 0 -56-56zm19.31372 64h19.88135a39.77446 39.77446 0 0 1 -5.83911 14.04248zm19.88135-16h-31.19507v-31.19507a40.12034 40.12034 0 0 1 31.19507 31.19507zm-47.19507-31.19507v35.88107l-25.356 25.35648a39.97228 39.97228 0 0 1 25.356-61.23755zm-14.04187 72.55127 22.04187-22.0422 22.04187 22.04224a39.88562 39.88562 0 0 1 -44.08374 0z" fill="#8b8b8d" data-original="#000000" style="" class=""/><path d="m488 16h-160a8.00008 8.00008 0 0 0 -8 8v128a8.00008 8.00008 0 0 0 8 8h24v32a8.00018 8.00018 0 0 0 13.65674 5.65723l37.65726-37.65723h84.686a8.00008 8.00008 0 0 0 8-8v-128a8.00008 8.00008 0 0 0 -8-8zm-8 128h-80a8.00035 8.00035 0 0 0 -5.65674 2.34277l-26.34326 26.34375v-20.68652a8.00008 8.00008 0 0 0 -8-8h-24v-112h144z" fill="#8b8b8d" data-original="#000000" style="" class=""/><path d="m384 48h32v16h-32z" fill="#8b8b8d" data-original="#000000" style="" class=""/><path d="m432 48h32v16h-32z" fill="#8b8b8d" data-original="#000000" style="" class=""/><path d="m352 80h48v16h-48z" fill="#8b8b8d" data-original="#000000" style="" class=""/><path d="m416 80h48v16h-48z" fill="#8b8b8d" data-original="#000000" style="" class=""/><path d="m352 112h64v16h-64z" fill="#8b8b8d" data-original="#000000" style="" class=""/><path d="m432 112h16v16h-16z" fill="#8b8b8d" data-original="#000000" style="" class=""/></g></g></svg>
